<?xml version="1.0" encoding="UTF-8"?>
<!DOCTYPE svg PUBLIC "-//W3C//DTD SVG 1.1//EN" "http://www.w3.org/Graphics/SVG/1.1/DTD/svg11.dtd">
<!-- Creator: CorelDRAW -->
<?xml-stylesheet href="cape.css" type="text/css"?>
<svg xmlns="http://www.w3.org/2000/svg" xml:space="preserve" width="155.397mm" height="17.813mm" version="1.1" style="shape-rendering:geometricPrecision; text-rendering:geometricPrecision; image-rendering:optimizeQuality; fill-rule:evenodd; clip-rule:evenodd"
viewBox="0 0 15586.14 1786.62"
 xmlns:xlink="http://www.w3.org/1999/xlink">
 <g id="Layer_x0020_1">
  <metadata id="CorelCorpID_0Corel-Layer"/>
  <g id="_105553542843680">
   <path class="fil0" d="M911.9 1764.66c268.65,0 500.32,-93.66 658.05,-271.11l-160.2 -155.27c-133.09,140.49 -295.75,207.03 -485.53,207.03 -389.41,0 -677.77,-280.97 -677.77,-662.97 0,-382.02 288.36,-662.97 677.77,-662.97 189.78,0 352.44,64.07 485.53,204.56l160.2 -155.27c-157.73,-177.45 -389.4,-268.64 -655.58,-268.64 -524.95,0 -914.36,372.16 -914.36,882.33 0,510.17 389.41,882.33 911.9,882.33z"/>
   <path class="fil0" d="M3169.48 1744.94l258.78 0 -783.74 -1725.22 -244 0 -781.28 1725.22 253.86 0 189.78 -431.3 916.83 0 189.78 431.3zm-1020.35 -628.47l372.16 -845.36 372.16 845.36 -744.32 0z"/>
   <path class="fil0" d="M4357.41 19.72l-672.83 0 0 1725.22 246.46 0 0 -522.5 426.37 0c448.57,0 719.66,-226.75 719.66,-601.36 0,-374.62 -271.1,-601.36 -719.66,-601.36zm-7.39 988.3l-418.98 0 0 -773.89 418.98 0c315.47,0 480.6,140.48 480.6,386.94 0,246.46 -165.13,386.94 -480.6,386.94z"/>
   <polygon class="fil0" points="9269.36,19.72 8793.69,1429.47 8318.03,19.72 8091.28,19.72 7605.76,1422.08 7139.95,19.72 6886.09,19.72 7462.81,1744.94 7726.53,1744.94 8197.26,367.22 8668,1744.94 8926.78,1744.94 9503.5,19.72 "/>
   <g>
    <path class="fil1 str0" d="M5448.11 50.23l1157.41 0c25.4,0 46.16,20.76 46.16,46.16l0 120.71c0,25.4 -20.76,46.16 -46.16,46.16l-1157.41 0 0 -213.02z"/>
    <path class="fil1 str0" d="M5448.11 1569.78l1157.41 0c25.4,0 46.16,20.76 46.16,46.16l0 120.71c0,25.4 -20.76,46.16 -46.16,46.16l-1157.41 0 0 -213.02z"/>
    <path class="fil1 str0" d="M5448.11 802.9l1157.41 0c25.4,0 46.16,20.76 46.16,46.16l0 120.71c0,25.4 -20.76,46.16 -46.16,46.16l-1157.41 0 0 -213.02z"/>
   </g>
   <g>
    <path class="fil1" d="M9892.9 882.33c0,-364.23 259.9,-636.6 619.48,-661.17l0 -219.86c-502.46,24.4 -865.93,392.91 -865.93,881.03 0,488.12 363.47,856.63 865.93,881.03l0 -219.86c-359.57,-24.57 -619.48,-296.94 -619.48,-661.17z"/>
    <path class="fil1" d="M10614.19 220.88c357.48,22.68 619.46,295.76 619.46,661.45 0,365.68 -261.97,638.77 -619.46,661.45l0 219.8c500.29,-22.3 865.92,-389.3 865.92,-881.26 0,-491.97 -365.63,-858.96 -865.92,-881.26l0 219.8z"/>
   </g>
   <g>
    <path class="fil1" d="M11963.17 882.33c0,-364.23 259.9,-636.6 619.48,-661.17l0 -219.86c-502.46,24.4 -865.93,392.91 -865.93,881.03 0,488.12 363.47,856.63 865.93,881.03l0 -219.86c-359.57,-24.57 -619.48,-296.94 -619.48,-661.17z"/>
    <path class="fil1" d="M12684.45 220.88c357.48,22.68 619.46,295.76 619.46,661.45 0,365.68 -261.97,638.77 -619.46,661.45l0 219.8c500.29,-22.3 865.92,-389.3 865.92,-881.26 0,-491.97 -365.63,-858.96 -865.92,-881.26l0 219.8z"/>
   </g>
   <g>
    <path class="fil1" d="M14181.7 234.14l458.02 0c426.38,0 699.95,261.25 699.95,648.19 0,386.94 -273.56,648.19 -699.95,648.19l-458.02 0 0 214.42 472.81 0c554.54,0 931.63,-349.97 931.63,-862.61 0,-512.64 -377.08,-862.61 -931.63,-862.61l-472.81 0 0 214.42z"/>
    <path class="fil1" d="M13849.48 1349.02l0 -933.38c0,-17.3 14.14,-31.44 31.44,-31.44l150.14 0c17.3,0 31.44,14.14 31.44,31.44l0 933.38c0,17.3 -14.14,31.44 -31.44,31.44l-150.14 0c-17.3,0 -31.44,-14.14 -31.44,-31.44z"/>
   </g>
  </g>
 </g>
</svg>
